<svg
  viewBox="0 0 64 64"
  width="64"
  height="64"
  xmlns="http://www.w3.org/2000/svg"
  role="img"
>
  <defs>
    <!-- Mask: white = visible, black = transparent -->
    <mask id="leetcode-cutout">
      <!-- Everything visible by default -->
      <rect width="64" height="64" fill="white" />
      
      <!-- Cut out the LeetCode logo -->
      <path
        d="M35.95466666666667 0a3.664 3.664 0 0 0 -2.5626666666666664 1.168L18.976 16.602666666666664l-10.277333333333333 11.002666666666666a14.042666666666666 14.042666666666666 0 0 0 -3.224 5.610666666666667 14.266666666666666 14.266666666666666 0 0 0 -0.3333333333333333 1.3679999999999999 14.738666666666667 14.738666666666667 0 0 0 0.16533333333333333 6.298666666666667 15.546666666666667 15.546666666666667 0 0 0 0.9306666666666665 2.7119999999999997 15.834666666666665 15.834666666666665 0 0 0 3.389333333333333 4.848l11.405333333333333 11.181333333333331 0.104 0.10133333333333333c5.994666666666667 5.773333333333333 15.605333333333334 5.688 21.501333333333335 -0.1973333333333333l6.389333333333333 -6.378666666666666c1.44 -1.44 1.44 -3.770666666666666 0.008 -5.213333333333333a3.674666666666666 3.674666666666666 0 0 0 -5.2026666666666666 -0.008l-6.389333333333333 6.378666666666666a8.056 8.056 0 0 1 -11.213333333333333 0.10133333333333333l-0.05333333333333333 -0.050666666666666665 -11.402666666666665 -11.181333333333331c-1.7386666666666666 -1.7066666666666666 -2.5919999999999996 -3.9173333333333336 -2.5279999999999996 -6.034666666666666a7.1466666666666665 7.1466666666666665 0 0 1 0.176 -1.3946666666666667 6.786666666666666 6.786666666666666 0 0 1 1.6506666666666665 -3.1039999999999996L24.346666666666668 21.637333333333334c2.8213333333333335 -3.0239999999999996 8.544 -3.3866666666666667 11.813333333333333 -0.7413333333333334l9.335999999999999 7.549333333333333c1.5813333333333333 1.2799999999999998 3.896 1.032 5.173333333333333 -0.5519999999999999a3.690666666666666 3.690666666666666 0 0 0 -0.5519999999999999 -5.181333333333333l-9.333333333333332 -7.549333333333333c-2.1333333333333333 -1.7253333333333334 -4.709333333333333 -2.786666666666666 -7.397333333333333 -3.205333333333333l5.373333333333333 -5.754666666666666A3.690666666666666 3.690666666666666 0 0 0 35.95466666666667 0zm-7.642666666666667 34.17333333333333a3.6799999999999997 3.6799999999999997 0 0 0 -3.6799999999999997 3.685333333333333 3.6799999999999997 3.6799999999999997 0 0 0 3.6799999999999997 3.685333333333333H55.44a3.6799999999999997 3.6799999999999997 0 0 0 3.6799999999999997 -3.685333333333333 3.6799999999999997 3.6799999999999997 0 0 0 -3.6799999999999997 -3.685333333333333z"
        fill="black"
      />
    </mask>
  </defs>

  <!-- Black circular background with cutout logo -->
  <circle
    cx="32"
    cy="33"
    r="32"
    fill="black"
    mask="url(#leetcode-cutout)"
  />
</svg>
